<svg width="119" height="58" viewBox="0 0 119 58" fill="none" xmlns="http://www.w3.org/2000/svg">
<path d="M34.9579 1.74948L114.781 32.6388L5.41898 55.9546L34.9579 1.74948Z" stroke="url(#paint0_linear_762_7)" stroke-width="2"/>
<path d="M11.9648 36.1641V39H1.81641V36.1641H11.9648ZM11.8359 23.9414L3.31641 39H0.914062V36.9258L9.53906 21.9375H11.8359V23.9414ZM10.6758 21.9375V24.7852H0.84375V21.9375H10.6758ZM25.193 29.1445V31.9922C25.193 33.1953 25.0445 34.25 24.7477 35.1562C24.4586 36.0547 24.0445 36.8086 23.5055 37.418C22.9742 38.0195 22.3297 38.4727 21.5719 38.7773C20.8219 39.082 19.9898 39.2344 19.0758 39.2344C18.1617 39.2344 17.3258 39.082 16.568 38.7773C15.818 38.4727 15.1695 38.0195 14.6227 37.418C14.0836 36.8086 13.6656 36.0547 13.3687 35.1562C13.0719 34.25 12.9234 33.1953 12.9234 31.9922V29.1445C12.9234 27.9102 13.068 26.832 13.357 25.9102C13.6461 24.9805 14.0641 24.207 14.6109 23.5898C15.1578 22.9648 15.8062 22.4961 16.5562 22.1836C17.3062 21.8633 18.1383 21.7031 19.0523 21.7031C19.9664 21.7031 20.7984 21.8633 21.5484 22.1836C22.2984 22.4961 22.9469 22.9648 23.4937 23.5898C24.0406 24.207 24.4586 24.9805 24.7477 25.9102C25.0445 26.832 25.193 27.9102 25.193 29.1445ZM21.7828 31.9922V29.1211C21.7828 28.3086 21.7242 27.6172 21.607 27.0469C21.4898 26.4688 21.3141 25.9961 21.0797 25.6289C20.8453 25.2617 20.5602 24.9922 20.2242 24.8203C19.8883 24.6484 19.4977 24.5625 19.0523 24.5625C18.607 24.5625 18.2125 24.6484 17.8687 24.8203C17.5328 24.9922 17.2477 25.2617 17.0133 25.6289C16.7867 25.9961 16.6148 26.4688 16.4977 27.0469C16.3883 27.6172 16.3336 28.3086 16.3336 29.1211V31.9922C16.3336 32.7734 16.3922 33.4414 16.5094 33.9961C16.6266 34.5508 16.8023 35.0039 17.0367 35.3555C17.2711 35.707 17.5562 35.9688 17.8922 36.1406C18.2359 36.3047 18.6305 36.3867 19.0758 36.3867C19.5133 36.3867 19.9 36.3047 20.2359 36.1406C20.5797 35.9688 20.8648 35.707 21.0914 35.3555C21.318 35.0039 21.4898 34.5508 21.607 33.9961C21.7242 33.4414 21.7828 32.7734 21.7828 31.9922ZM31.5422 39H28.5305L28.5539 36.1641H31.5422C32.3703 36.1641 33.0148 36.0156 33.4758 35.7188C33.9367 35.4219 34.2609 34.9531 34.4484 34.3125C34.6437 33.6719 34.7414 32.832 34.7414 31.793V29.1328C34.7414 28.3438 34.6906 27.6758 34.5891 27.1289C34.4875 26.5742 34.3156 26.1289 34.0734 25.793C33.8312 25.4492 33.507 25.1953 33.1008 25.0312C32.6945 24.8672 32.1906 24.7852 31.5891 24.7852H28.4719V21.9375H31.5891C32.5734 21.9375 33.468 22.0977 34.2727 22.418C35.0773 22.7383 35.7687 23.207 36.3469 23.8242C36.925 24.4336 37.3703 25.1875 37.6828 26.0859C37.9953 26.9844 38.1516 28.0078 38.1516 29.1562V31.793C38.1516 32.9492 37.9953 33.9727 37.6828 34.8633C37.3703 35.7539 36.925 36.5078 36.3469 37.125C35.7766 37.7344 35.0852 38.1992 34.2727 38.5195C33.4602 38.8398 32.55 39 31.5422 39ZM30.5227 21.9375V39H27.0891V21.9375H30.5227ZM52.2094 34.5117C52.2094 34.207 52.182 33.9297 52.1273 33.6797C52.0727 33.4297 51.9555 33.1992 51.7758 32.9883C51.6039 32.7773 51.35 32.5664 51.0141 32.3555C50.6859 32.1445 50.2562 31.9258 49.725 31.6992C49.0922 31.4336 48.4789 31.1523 47.8852 30.8555C47.2914 30.5508 46.7562 30.1992 46.2797 29.8008C45.8031 29.4023 45.4242 28.9336 45.143 28.3945C44.8695 27.8477 44.7328 27.207 44.7328 26.4727C44.7328 25.7539 44.8617 25.1016 45.1195 24.5156C45.3852 23.9297 45.7602 23.4297 46.2445 23.0156C46.7289 22.5938 47.2953 22.2695 47.9437 22.043C48.6 21.8164 49.3305 21.7031 50.1352 21.7031C51.2289 21.7031 52.1742 21.9297 52.9711 22.3828C53.7758 22.8359 54.3969 23.457 54.8344 24.2461C55.2797 25.0352 55.5023 25.9414 55.5023 26.9648H52.0805C52.0805 26.4805 52.0102 26.0547 51.8695 25.6875C51.7367 25.3125 51.5219 25.0195 51.225 24.8086C50.9281 24.5977 50.5453 24.4922 50.0766 24.4922C49.6391 24.4922 49.2758 24.582 48.9867 24.7617C48.7055 24.9336 48.4945 25.1719 48.3539 25.4766C48.2211 25.7734 48.1547 26.1094 48.1547 26.4844C48.1547 26.7656 48.2211 27.0195 48.3539 27.2461C48.4945 27.4648 48.6859 27.6641 48.9281 27.8438C49.1703 28.0156 49.4555 28.1836 49.7836 28.3477C50.1195 28.5117 50.4867 28.6719 50.8852 28.8281C51.6586 29.1328 52.3422 29.4688 52.9359 29.8359C53.5297 30.1953 54.0258 30.6016 54.4242 31.0547C54.8227 31.5 55.1234 32.0039 55.3266 32.5664C55.5297 33.1289 55.6312 33.7695 55.6312 34.4883C55.6312 35.1992 55.5062 35.8477 55.2562 36.4336C55.0141 37.0117 54.6586 37.5117 54.1898 37.9336C53.7211 38.3477 53.1547 38.668 52.4906 38.8945C51.8344 39.1211 51.1 39.2344 50.2875 39.2344C49.4984 39.2344 48.7523 39.125 48.0492 38.9062C47.3461 38.6797 46.725 38.3398 46.1859 37.8867C45.6547 37.4258 45.2367 36.8438 44.932 36.1406C44.6273 35.4297 44.475 34.5898 44.475 33.6211H47.9086C47.9086 34.1367 47.9594 34.5781 48.0609 34.9453C48.1625 35.3047 48.3187 35.5938 48.5297 35.8125C48.7406 36.0234 48.9984 36.1836 49.3031 36.293C49.6156 36.3945 49.9711 36.4453 50.3695 36.4453C50.8227 36.4453 51.182 36.3594 51.4477 36.1875C51.7211 36.0156 51.9164 35.7852 52.0336 35.4961C52.1508 35.207 52.2094 34.8789 52.2094 34.5117ZM67.1367 36.1641V39H59.7188V36.1641H67.1367ZM60.7852 21.9375V39H57.3516V21.9375H60.7852ZM66.1406 28.8516V31.6055H59.7188V28.8516H66.1406ZM67.1133 21.9375V24.7852H59.7188V21.9375H67.1133ZM76.6734 33.3164H80.0836C80.0367 34.5977 79.7789 35.6797 79.3102 36.5625C78.8414 37.4375 78.1734 38.1016 77.3063 38.5547C76.4469 39.0078 75.4078 39.2344 74.1891 39.2344C73.2438 39.2344 72.4039 39.0781 71.6695 38.7656C70.9352 38.4453 70.3102 37.9766 69.7945 37.3594C69.2789 36.7422 68.8883 35.9805 68.6227 35.0742C68.3648 34.1602 68.2359 33.1094 68.2359 31.9219V29.0273C68.2359 27.8398 68.3727 26.7891 68.6461 25.875C68.9273 24.9609 69.3258 24.1953 69.8414 23.5781C70.3648 22.9531 70.9938 22.4844 71.7281 22.1719C72.4703 21.8516 73.3063 21.6914 74.2359 21.6914C75.4781 21.6914 76.5172 21.9258 77.3531 22.3945C78.1891 22.8633 78.8336 23.5469 79.2867 24.4453C79.7477 25.3359 80.025 26.4258 80.1188 27.7148H76.6969C76.6734 26.9023 76.5797 26.2656 76.4156 25.8047C76.2594 25.3359 76.0094 25.0078 75.6656 24.8203C75.3219 24.625 74.8453 24.5273 74.2359 24.5273C73.7828 24.5273 73.3922 24.6094 73.0641 24.7734C72.7359 24.9297 72.4664 25.1836 72.2555 25.5352C72.0445 25.8867 71.8883 26.3477 71.7867 26.918C71.693 27.4883 71.6461 28.1836 71.6461 29.0039V31.9219C71.6461 32.7266 71.6891 33.4141 71.775 33.9844C71.8609 34.5469 71.9977 35.0078 72.1852 35.3672C72.3727 35.7266 72.6266 35.9883 72.9469 36.1523C73.275 36.3164 73.6891 36.3984 74.1891 36.3984C74.7672 36.3984 75.232 36.3125 75.5836 36.1406C75.943 35.9688 76.2086 35.6602 76.3805 35.2148C76.5523 34.7695 76.65 34.1367 76.6734 33.3164Z" fill="#F5F5F5"/>
<defs>
<linearGradient id="paint0_linear_762_7" x1="101.405" y1="23.9622" x2="29.5571" y2="-3.95801" gradientUnits="userSpaceOnUse">
<stop stop-color="#00D1FF" stop-opacity="0.72"/>
<stop offset="0.255208" stop-color="#00D1FF" stop-opacity="0"/>
<stop offset="0.515625" stop-color="#00D1FF" stop-opacity="0"/>
<stop offset="0.661458" stop-color="#00D1FF" stop-opacity="0.0722581"/>
<stop offset="1" stop-color="#00D1FF" stop-opacity="0.56"/>
</linearGradient>
</defs>
</svg>
