<svg width="2455" height="426" viewBox="0 0 2455 426" fill="none" xmlns="http://www.w3.org/2000/svg">
<path d="M0.616757 423.985C-0.230236 423.086 2.15362 416.6 5.91476 409.574C13.5794 395.254 176.246 82.6714 186.862 61.8575C197.279 41.4388 219.534 18.9579 238.659 9.54033L254.916 1.53195L359.054 0.795437L463.19 0.0540111L461.378 168.309L459.567 336.563L611.399 335.034C779.585 333.34 773.106 334.002 787.378 317.041C801.303 300.489 796.265 275.413 777.042 265.607C767.56 260.771 763.119 260.538 679.245 260.498C582.557 260.449 569.946 259.116 541.858 245.974C512.65 232.304 484.694 199.704 474.511 167.425C468.25 147.588 467.784 113.794 473.479 92.553C485.018 49.5159 517.786 18.8057 565.73 6.09835C579.631 2.41332 599.981 1.78728 733.155 0.95256L884.755 0V91.1414H748.256C595.527 91.1414 600.349 90.616 588.491 108.535C579.616 121.947 578.519 134.952 585.111 148.575C595.216 169.443 593.598 169.129 696.943 170.386C771.402 171.294 790.653 172.234 803.701 175.615C855.269 188.965 893.055 223.194 903.057 265.617C907.712 285.373 907.729 296.472 903.141 318.234C893.448 364.197 861.159 400.547 815.036 417.423L797.6 423.801L569.911 424.498L342.223 425.198L341.592 262.465L340.961 99.734L332.532 98.9312C306.583 96.459 293.789 107.229 273.621 148.509C265.618 164.891 233.012 232.39 201.163 298.507C169.313 364.622 142.443 419.507 141.451 420.472C139.114 422.738 2.65445 426.143 0.619212 423.985H0.616757ZM921.58 211.326V0.0785617L1060.9 0.805257L1200.23 1.53195L1221.04 8.79154C1250.13 18.9407 1274.72 35.9346 1287.06 54.4162C1299.38 72.8684 1303.02 88.7968 1301.71 118.645C1300.83 138.821 1299.61 144.158 1292.71 158.186C1278.75 186.537 1255.26 203.102 1212.96 214.414L1201.15 217.577L1219.99 229.852C1246.18 246.917 1266.37 269.189 1277.77 293.59C1289.78 319.309 1294.95 344.842 1296.57 386.361L1297.89 420.118H1162.87L1161.43 393.727C1158.98 349.027 1148.09 319.756 1125.51 297.231C1104.88 276.64 1081.06 267.196 1041.44 263.891L1022.24 262.288V422.573H921.58V211.326ZM1151.13 158.655C1169.56 149.439 1174.67 125.507 1161.1 111.936C1151.75 102.589 1139.82 100.989 1079.32 100.976L1022.24 100.962V165.24L1081.77 164.403C1135.39 163.649 1142.28 163.077 1151.13 158.655V158.655ZM1471.47 420.054C1421.29 414.175 1375.44 393.987 1342.68 363.343C1246.51 273.375 1305.95 140.301 1454.94 112.039C1482.28 106.851 1528.77 107.283 1556.21 112.977C1627.95 127.859 1684.85 171.088 1703.59 224.942C1709.17 240.963 1710.97 273.036 1707.3 290.744C1690.07 373.742 1582 433 1471.47 420.052V420.054ZM1526.66 350.068C1565.55 339.941 1590.07 314.585 1596.9 277.453C1599.33 264.223 1599.15 259.271 1595.73 245.81C1588.68 218.085 1571.47 198.108 1543.23 184.87C1530.69 178.99 1526.36 178.296 1502.2 178.296C1477.68 178.296 1473.93 178.919 1461.39 185.079C1441.07 195.059 1426.23 209.286 1417.38 227.267C1392.27 278.27 1421.63 335.883 1480.1 350.373C1497.03 354.566 1509.71 354.485 1526.66 350.068V350.068ZM1483.3 328.437C1422.63 311.391 1414.01 234.718 1469.57 206.242C1484.05 198.822 1510.89 197.17 1527.47 202.677C1542.39 207.634 1560.58 223.029 1567.9 236.9C1576.34 252.89 1575.54 277.455 1566.01 294.761C1550.87 322.289 1514.35 337.157 1483.3 328.437ZM1937.6 419.868C1846.02 412.815 1771.93 378.414 1738.37 327.371C1722.5 303.233 1718.24 290.141 1718.24 265.45C1718.24 240.846 1722.5 227.662 1738.13 203.882C1762.09 167.43 1803.54 139.567 1856.88 124.044C1895.68 112.751 1917.87 110.269 1991.37 108.987L2060.72 107.777V181.202L2013.46 182.813C1987.34 183.702 1958.55 186.063 1949.09 188.096C1913.52 195.731 1880.08 217.25 1869.35 239.419C1862.57 253.437 1862.6 275.069 1869.42 289.171C1879.86 310.726 1911.32 331.908 1945.56 340.44C1956.01 343.047 1977.97 344.827 2011.01 345.747L2060.72 347.132V422.573L2012.24 422.23C1985.57 422.038 1951.98 420.975 1937.6 419.868V419.868ZM2075.45 211.439V0.304426H2205.57V186.888H2227.15C2278.54 186.888 2313.53 166.899 2333.26 126.281L2341.83 108.634L2394.07 108.481C2454.04 108.305 2449.9 106.485 2449.65 132.877C2449.33 166.58 2425.89 198.56 2385.2 220.815L2372.86 227.559L2389.79 240.792C2434.05 275.408 2450.32 312.312 2452.86 383.906L2454.23 422.573H2331.37L2329.65 396.182C2325.53 332.888 2308.98 298.824 2274.05 281.796C2258.59 274.259 2240.16 270.36 2219.97 270.36H2205.57V422.573H2075.45V211.439Z" fill="#F5F5F5"/>
</svg>
