<svg width="2500" height="496" viewBox="0 0 2500 496" fill="none" xmlns="http://www.w3.org/2000/svg">
<path d="M2392.99 62.8143C2392.99 34.4315 2415.79 11.167 2443.71 11.167C2457.2 11.167 2469.76 16.7505 2479.53 26.0563C2489.31 35.8274 2494.42 48.8555 2494.42 62.349C2494.42 75.8424 2489.31 88.8705 2479.53 98.6416C2469.76 108.413 2457.2 113.996 2443.71 113.996C2415.79 113.996 2392.99 91.197 2392.99 62.8143ZM2388.8 62.8143C2388.8 93.5234 2413.46 118.649 2444.17 118.649C2459.06 118.649 2472.56 113.066 2482.79 102.364C2493.03 91.6623 2499.08 77.7036 2499.08 62.8143C2499.08 47.925 2493.49 33.9662 2482.79 23.2645C2472.09 12.5629 2458.6 6.97936 2444.17 6.97936C2413.46 6.97936 2388.8 32.1051 2388.8 62.8143ZM2423.23 95.8499H2431.14V69.7936H2448.83C2451.62 69.7936 2453.94 69.7936 2455.8 70.7242C2458.13 72.1201 2459.53 74.9118 2459.99 78.6341L2460.92 88.8705V93.5234C2461.39 94.454 2461.39 94.9193 2461.85 95.3846H2471.62V93.9887C2470.23 93.5235 2469.76 92.1276 2469.3 90.2664C2468.83 89.3358 2468.83 87.4747 2468.83 85.1482L2468.37 77.2383C2468.37 73.5159 2467.44 71.1895 2466.51 69.7936C2465.11 68.3977 2463.25 67.0019 2460.92 66.0713C2463.71 64.6754 2465.58 62.8143 2466.97 60.4878C2468.37 58.1613 2468.83 55.3696 2468.83 51.6473C2468.83 44.6679 2466.04 40.015 2460.92 37.2233C2458.13 35.8274 2454.41 35.3621 2450.22 35.3621H2423.7L2423.23 95.8499ZM2430.68 62.8143V41.8762H2449.29C2452.08 41.8762 2454.41 42.3415 2455.8 43.272C2458.6 44.6679 2459.99 47.925 2459.99 52.1126C2459.99 56.3002 2459.06 59.0919 2456.74 60.4878C2454.87 61.8837 2452.08 62.8143 2448.36 62.8143H2430.68ZM226.131 139.587L0 495.069H154.477L372.233 155.407L226.131 139.587ZM1157.18 131.677V0H717.478C657.456 3.72233 631.4 32.5704 611.857 53.0431C590.919 74.9118 579.287 120.976 579.287 120.976V0.930582H345.246C327.565 0.930582 310.814 8.37523 298.251 26.0563C285.223 43.272 231.715 131.677 231.715 131.677H1157.18ZM2352.98 131.677V0H1882.57C1823.01 3.72233 1796.49 32.5704 1776.95 53.0431C1756.01 74.9118 1744.38 120.976 1744.38 120.976V131.677H2352.98ZM1311.65 0.465291H1179.98V131.677H1311.65V0.465291ZM1742.98 0.465291H1611.77V131.677H1742.98V0.465291ZM1742.98 179.137L1613.63 171.227V323.377C1613.63 323.377 1613.16 367.114 1570.82 367.114H1349.34C1349.34 367.114 1311.65 363.857 1311.65 323.842V150.754L1181.37 141.448V374.559C1202.31 486.229 1303.28 495.069 1303.28 495.069C1303.28 495.069 1313.52 495.535 1315.38 496H1615.49C1615.49 496 1743.91 485.764 1743.91 361.996L1742.98 179.137ZM445.283 495.069H1060.4C1167.41 473.666 1178.58 375.955 1178.58 375.955C1183.7 347.107 1180.91 323.377 1180.91 323.377C1177.65 303.835 1140.43 217.291 1060.4 209.846C1012.47 205.193 585.801 171.227 585.801 171.227C594.176 214.034 613.253 235.902 626.281 248C656.06 276.383 703.054 284.758 703.054 284.758L1032.01 312.21C1042.25 312.675 1061.33 315.467 1060.86 340.593C1060.86 343.85 1058.07 365.719 1033.88 365.719H573.704V170.296L445.749 160.991C445.283 160.991 445.283 495.069 445.283 495.069V495.069ZM1743.91 496H2214.78C2332.97 489.021 2349.72 376.886 2349.72 376.886C2353.91 347.572 2350.65 323.377 2350.65 323.377C2347.39 296.856 2309.7 216.826 2229.21 208.916C2181.75 204.263 1752.29 179.137 1752.29 179.137C1764.85 223.34 1782.06 236.833 1795.09 248.931C1824.87 277.779 1869.07 284.293 1869.07 284.293C1880.24 285.223 2201.29 312.21 2201.29 312.21C2211.53 312.675 2232.47 313.606 2232.47 338.732C2232.47 346.176 2228.74 354.086 2224.09 358.274C2224.09 358.274 2212.92 364.323 2202.22 364.323H1745.31L1743.91 496Z" fill="#F5F5F5"/>
</svg>
