<svg width="2500" height="523" viewBox="0 0 2500 523" fill="none" xmlns="http://www.w3.org/2000/svg">
<path d="M289.393 0.121094C205.856 0.189169 116.574 32.8651 22.3104 103.45C11.6726 111.199 5.97018 124.133 7.48371 137.208C8.98363 150.276 17.4794 161.506 29.5944 166.621C41.714 171.735 55.6852 169.875 66.0802 161.835C157.173 93.64 233.792 70.0498 302.157 73.5647C370.513 77.0865 433.963 108.101 496.481 160.465C501.328 165.036 507.332 168.195 513.844 169.601C520.356 171.007 527.129 170.606 533.43 168.441C546.25 164.052 555.529 152.876 557.599 139.473C558.613 132.899 557.811 126.174 555.28 120.024C552.749 113.874 548.584 108.532 543.237 104.577C472.923 45.6995 394.328 5.12005 306.033 0.577195C300.491 0.283764 294.942 0.131681 289.393 0.121094V0.121094ZM1586.25 0.121094C1502.71 0.189169 1413.43 32.8651 1319.17 103.45C1308.53 111.199 1302.83 124.133 1304.34 137.208C1305.86 150.283 1314.34 161.506 1326.47 166.621C1338.6 171.733 1352.54 169.875 1362.96 161.835C1454.04 93.6468 1530.66 70.0498 1599.02 73.5715C1667.38 77.0933 1730.82 108.108 1793.35 160.471C1798.19 165.042 1804.2 168.202 1810.71 169.608C1817.22 171.013 1824 170.612 1830.3 168.447C1843.12 164.059 1852.4 152.883 1854.47 139.477C1855.48 132.904 1854.68 126.179 1852.14 120.029C1849.61 113.879 1845.45 108.538 1840.1 104.582C1769.79 45.7085 1691.19 5.12686 1602.9 0.581733C1597.36 0.284674 1591.81 0.131076 1586.25 0.121094V0.121094ZM1165.66 14.7209C1152.37 15.2836 1140.33 23.0963 1134.43 35.014L933.93 407.919L733.465 35.0185C730.373 28.9859 725.662 23.9337 719.86 20.4284C714.057 16.923 707.393 15.103 700.615 15.1724C694.273 15.2519 688.061 16.9751 682.584 20.1736C677.108 23.3721 672.555 27.9366 669.371 33.421C662.928 44.5649 662.869 58.2139 669.162 69.4598L901.787 502.123C908.143 513.961 920.501 521.286 933.943 521.286C947.388 521.286 959.762 513.982 966.127 502.123L1198.75 69.4598C1202 63.7903 1203.68 57.3513 1203.6 50.8142C1203.51 44.2771 1201.68 37.8812 1198.29 32.2933C1191.38 20.9089 1178.95 14.1604 1165.66 14.7209V14.7209ZM2229.42 15.6285C2222.97 15.8007 2216.67 17.6869 2211.18 21.0938C2205.7 24.5007 2201.21 29.3057 2198.19 35.0162L1965.55 467.682C1962.3 473.354 1960.63 479.795 1960.71 486.334C1960.79 492.873 1962.62 499.271 1966.01 504.862C1972.91 516.235 1985.34 522.983 1998.62 522.402C2005.17 522.117 2011.52 520.086 2017.01 516.519C2022.51 512.953 2026.95 507.982 2029.87 502.121L2230.36 129.214L2430.83 502.132C2433.75 507.992 2438.2 512.963 2443.69 516.529C2449.19 520.094 2455.53 522.125 2462.08 522.409C2475.37 522.992 2487.79 516.244 2494.69 504.864C2501.59 493.471 2501.78 479.198 2495.15 467.693L2262.5 35.0185C2259.33 29.0354 2254.56 24.0528 2248.71 20.6283C2242.87 17.2039 2236.19 15.4727 2229.42 15.6285V15.6285ZM36.9056 225.011C30.4621 224.906 24.107 226.52 18.4951 229.688C12.8832 232.856 8.21745 237.463 4.97856 243.035C1.71925 248.645 0.00244141 255.018 0.00244141 261.506C0.00244141 267.994 1.71925 274.367 4.97856 279.977C8.2181 285.547 12.8841 290.154 18.4958 293.321C24.1076 296.489 30.4624 298.103 36.9056 297.998H300.559C307.002 298.108 313.357 296.495 318.968 293.327C324.58 290.159 329.243 285.55 332.477 279.977C335.736 274.366 337.452 267.994 337.452 261.506C337.452 255.018 335.736 248.645 332.477 243.035C325.858 231.662 313.718 224.834 300.559 225.011H36.9056V225.011ZM1575.31 225.011C1568.87 224.905 1562.51 226.519 1556.9 229.687C1551.29 232.855 1546.62 237.463 1543.38 243.035C1540.12 248.644 1538.4 255.017 1538.4 261.506C1538.4 267.994 1540.12 274.367 1543.38 279.977C1546.62 285.548 1551.29 290.154 1556.9 293.322C1562.51 296.49 1568.87 298.104 1575.31 297.998H1781.04L1783.09 370.997C1723.9 418.264 1663.63 446.358 1599.03 449.683C1530.67 453.22 1454.04 429.61 1362.97 361.428C1356.18 356.229 1347.78 353.562 1339.23 353.885C1323.73 354.521 1310.23 364.816 1305.7 379.677C1301.18 394.522 1306.64 410.642 1319.16 419.814C1419.73 495.077 1514.6 527 1602.89 522.452C1691.19 517.907 1769.78 477.548 1840.1 418.675C1844.16 415.296 1847.44 411.081 1849.72 406.317C1852 401.553 1853.22 396.353 1853.31 391.072C1853.52 380.764 1853.33 267.893 1853.31 261.533C1853.29 255.172 1853.87 248.708 1850.58 243.053C1843.94 231.673 1831.82 224.852 1818.67 225.022H1575.31L1575.31 225.011V225.011ZM2228.53 311.225C2201.56 311.225 2179.49 333.304 2179.49 360.264C2179.49 387.231 2201.56 409.071 2228.53 409.071C2255.49 409.071 2277.32 387.224 2277.32 360.264C2277.32 333.295 2255.49 311.225 2228.53 311.225ZM42.3834 353.874C26.8805 354.496 13.3813 364.807 8.8384 379.645C4.33185 394.494 9.7801 410.624 22.3127 419.789C122.855 495.066 217.749 526.966 306.028 522.427C394.319 517.885 472.918 477.514 543.226 418.654C558.715 405.743 560.925 382.59 548 367.087C535.082 351.591 511.943 349.613 496.449 362.522C433.92 414.903 370.481 446.134 302.125 449.658C233.767 453.182 157.135 429.58 66.053 361.396C59.2939 356.182 50.9125 353.519 42.3834 353.874V353.874Z" fill="#F5F5F5"/>
</svg>
