<svg width="2490" height="318" viewBox="0 0 2490 318" fill="none" xmlns="http://www.w3.org/2000/svg">
<path d="M2388.83 8.46677H2370.41V1.01856H2415.7V8.46677H2397.31V60.095H2388.83V8.46677ZM2424.25 1.01856H2438.27L2456.9 50.0208L2475.15 1.01856H2489.12V60.095H2480.64V8.99197H2480.49L2460.91 60.095H2452.51L2432.96 8.99197H2432.78V60.095H2424.25V1.01856ZM368.209 0H452.582V315.316H368.209V0ZM951.167 0.262597H1054.66L1176.76 317.114H1084.18L1060.55 249.515H941.626L916.624 317.114H830.834L951.167 0.262597ZM1002.9 65.6254H1002.02L961.13 189.571H1040.57L1002.9 65.6254ZM1217.85 0.22281H1363.6C1422.58 0.22281 1466.65 26.0767 1466.65 80.5457C1466.65 120.556 1446.23 142.821 1410.82 154.582V155.466C1452.97 164.147 1474.82 186.818 1474.82 225.452C1474.82 301.255 1408.08 317.106 1351.35 317.106H1217.85V0.22281ZM1302.26 257.266H1327.29C1358.15 257.266 1390.37 252.674 1390.37 220.47C1390.37 185.919 1357.23 182.792 1328.21 182.792H1302.25V257.266H1302.26ZM1302.26 125.561H1325.89C1353.6 125.561 1382.17 118.75 1382.17 91.9409C1382.17 62.8722 1354.98 60.2144 1326.84 60.2144H1302.26V125.561ZM1589.13 197.76L1472.04 0.22281H1569.16L1631.38 127.352L1692.66 0.22281H1789.86L1673.57 197.76V317.114H1589.13V197.76ZM1902.64 62.8722H1824.61V0.22281H2065.2V62.8722H1987.16V317.114H1902.64V62.8722ZM2105.39 0.22281H2328.76V60.2144H2189.8V125.561H2321V185.473H2189.8V257.266H2333.72V317.114H2105.39V0.22281ZM176.465 69.6042C120.293 74.2752 89.6252 111.15 89.6252 158.871C89.6252 205.271 132.62 244.271 174.142 244.271L183.261 244.176H198.611C198.611 244.176 208.789 244.176 208.86 234.253V134.665H295.565C295.565 190.876 295.358 317.114 295.358 317.114C295.358 317.114 209.783 317.042 160.097 317.042C66.6599 317.042 0 239.855 0 158.871C0 71.2753 72.5087 -1.88593 162.794 1.35277L292.494 1.75861L292.43 69.5962H176.465V69.6042ZM678.209 69.6042C622.013 74.2673 591.401 111.142 591.401 158.871C591.401 205.271 634.332 244.271 675.886 244.271L684.973 244.176H700.363C700.363 244.176 710.469 244.176 710.54 234.253V134.665H797.102C797.102 190.876 796.959 317.114 796.959 317.114C796.959 317.114 711.456 317.042 661.801 317.042C568.412 317.042 501.823 239.855 501.823 158.871C501.823 71.2753 574.26 -1.88593 664.586 1.36073L794.07 1.76656L794.038 69.6042H678.209Z" fill="#F5F5F5"/>
</svg>
