<svg width="2500" height="584" viewBox="0 0 2500 584" fill="none" xmlns="http://www.w3.org/2000/svg">
<path d="M2124.2 583.96L2284.06 143.084C2284.06 143.084 2164.57 143.084 2045.06 167.066L1893.94 583.959H2124.2V583.96V583.96ZM2096.93 23.9884L2066.24 108.677C2186.47 84.6609 2305.23 84.6609 2305.23 84.6609L2335.92 0C2335.93 0.0145714 2216.44 0.0145709 2096.93 23.9884V23.9884ZM1234.08 559.963C1315.28 575.688 1399.16 583.959 1484.97 583.959H1485C1621.19 583.959 1677.17 570.412 1747.82 534.351C1808.02 503.561 1847.59 470.897 1864.6 414.64C1879.17 366.431 1860.55 320.933 1817.34 291.982C1774.12 263.038 1732.26 249.356 1682.55 221.934C1639.06 197.966 1615.36 179.901 1618.26 154.761C1624.36 102.019 1680.74 84.6596 1758.43 84.6596C1834.15 84.6596 1908.23 91.5147 1980.11 104.616L2009.36 23.9871C1928.17 8.28183 1844.25 0 1758.43 0C1622.24 0 1566.28 13.5461 1495.62 49.6287C1435.4 80.4074 1395.84 113.071 1378.83 169.359C1364.26 217.558 1382.88 263.029 1426.12 291.974C1469.31 320.914 1511.15 334.614 1560.91 362.074C1604.36 386.032 1628.11 404.084 1625.15 429.22C1619.04 481.979 1562.67 499.265 1485 499.265H1484.97C1409.3 499.265 1335.2 492.432 1263.3 479.305L1234.08 559.963V559.963ZM1146.46 583.96L1294.67 175.168C1306.72 142.027 1307.5 82.3083 1274.21 49.6671C1240.89 16.9014 1201.22 0.0132467 1127.89 0.0132467C1054.56 -0.0105973 995.03 19.2435 947.194 37.9888C921.474 48.0047 883.29 67.5925 840.093 93.7494C835.92 77.1765 828.309 61.6368 816.135 49.6764C782.797 16.912 743.124 0.023844 669.811 0.023844C596.459 0.003974 536.976 19.2541 489.107 37.9994C463.4 48.0139 425.205 67.6018 382.008 93.7587C377.842 77.1858 370.224 61.6474 358.05 49.6857C324.721 16.9226 285.057 0.0344414 211.715 0.0344414L0 583.999H230.294L336.166 291.982C355.356 239.023 407.582 188.59 436.252 166.438C472.723 138.272 635.93 93.4328 591.47 216.072L458.096 583.96H688.398L794.262 291.924C813.471 238.983 865.687 188.581 894.335 166.439C930.806 138.273 1094.01 93.4342 1049.54 216.073L916.171 583.96H1146.46V583.96Z" fill="#F5F5F5"/>
<path d="M2444.92 8.54272H2431.13V44.0942H2419.76V8.54272H2405.98V0.0131836H2444.91V8.54272H2444.92ZM2499.43 44.0955H2488.08V14.5819L2479.93 33.7233H2472.12L2463.98 14.5819V44.0955H2453.3V0.0145083H2466.42L2476.33 22.1153L2486.18 0.0145083H2499.43V44.0955H2499.43V44.0955Z" fill="#F5F5F5"/>
</svg>
