<svg width="2405" height="505" viewBox="0 0 2405 505" fill="none" xmlns="http://www.w3.org/2000/svg">
<path d="M1587.59 505L917.27 155.227V467.696H821.515V0L1491.82 348.761V36.2825H1587.59V505ZM763.045 277.187C760.029 285.251 754.981 291.302 748.94 297.352C742.89 303.403 736.839 307.43 728.776 311.467C720.712 314.492 712.648 316.505 703.582 316.505H280.223L97.7785 221.752V467.696H0L1.01178 101.805C1.01178 92.7297 3.02522 84.6658 6.05045 76.6019C10.0875 68.538 14.1143 62.4876 20.1648 56.4472C26.2152 50.3968 33.2674 46.3598 41.3312 42.3329C49.3951 39.3077 57.459 37.2942 66.5347 37.2942H704.584C713.66 37.2942 721.723 39.3077 729.787 42.3329C737.851 45.3581 743.902 50.3968 749.942 56.4472C755.992 62.4876 760.029 68.538 764.056 76.6019C768.093 84.6658 769.095 92.7297 769.095 101.805V252.996C769.095 261.06 767.082 269.124 763.045 277.187V277.187ZM673.34 133.049H98.7903V220.74H673.34V133.049ZM2057.3 274.172L2058.31 464.681H1955.5V274.172L1625.88 36.2825H1791.2L2004.88 190.508L2221.61 34.269H2386.91L2057.3 274.172ZM2361.71 382.018C2384.9 382.018 2404.05 400.169 2404.05 424.361C2404.05 448.553 2384.9 466.694 2361.71 466.694C2338.53 466.694 2319.38 448.553 2319.38 424.361C2318.37 400.169 2338.53 382.018 2361.71 382.018ZM2361.71 460.644C2380.86 460.644 2396.99 444.516 2396.99 424.361C2396.99 404.196 2381.87 388.068 2361.71 388.068C2341.55 388.068 2326.44 404.196 2326.44 424.361C2326.44 444.516 2341.55 460.644 2361.71 460.644ZM2344.58 399.158H2363.73C2375.82 399.158 2380.86 404.196 2380.86 413.272C2380.86 422.337 2374.82 426.375 2367.76 426.375L2381.87 448.553H2373.81L2360.71 427.386H2352.64V448.553H2344.58V399.158ZM2352.64 421.336H2360.71C2367.76 421.336 2373.81 421.336 2373.81 413.272C2373.81 406.21 2367.76 405.208 2362.72 405.208H2352.64V421.336Z" fill="#F5F5F5"/>
</svg>
