<svg width="172" height="30" viewBox="0 0 172 30" fill="none" xmlns="http://www.w3.org/2000/svg">
<path fill-rule="evenodd" clip-rule="evenodd" d="M100.5 1.40002H71.8L67.5 8.70002H79.3V29.1H87.6V8.70002H96.2L100.5 1.40002Z" fill="#F5F5F5"/>
<path d="M113.1 0L96.3003 29.1H104.6L113.1 14.4L117.7 22.2H111L107.1 29.1H130L113.1 0Z" fill="#F5F5F5"/>
<path fill-rule="evenodd" clip-rule="evenodd" d="M5.0001 1.40002H27.7001L14.2001 22.4H29.1001L25.3001 29.1H0.600098L14.3001 8.10002H1.1001L5.0001 1.40002Z" fill="#F5F5F5"/>
<path fill-rule="evenodd" clip-rule="evenodd" d="M48.5001 22.9C44.8001 22.9 41.9001 19.5 41.9001 15.4C41.9001 11.3 44.8001 8.00002 48.5001 8.00002C52.2001 8.00002 55.2001 11.3 55.2001 15.4C55.2001 19.5 52.2001 22.9 48.5001 22.9ZM48.5001 0.900024C40.2001 0.900024 33.6001 7.30002 33.6001 15.3C33.6001 23.4 40.3001 29.8 48.5001 29.8C56.8001 29.8 63.4001 23.3 63.4001 15.3C63.5001 7.30002 56.8001 0.900024 48.5001 0.900024Z" fill="#F5F5F5"/>
<path d="M146.7 22.4C143 22.4 140.6 19.2 140.6 15.3C140.6 11.4 143.3 8.30002 146.7 8.30002H157.3L161.5 0.900024H145.7C140.6 0.900024 136.2 3.90002 133.9 8.30002C132.8 10.4 132.2 12.8 132.2 15.3C132.2 18.7 133.3 21.8 135.1 24.3C137.6 27.6 141.4 29.8 145.7 29.8H157.8L162 22.4H146.7Z" fill="#F5F5F5"/>
<path d="M170.1 3.29999C170.1 2.99999 170 2.79999 169.8 2.59999C169.6 2.39999 169.3 2.29999 168.8 2.29999H167.3V5.59999H167.9V4.39999H168.6L169.4 5.59999H170.1L169.2 4.29999C169.8 4.19999 170.1 3.79999 170.1 3.29999ZM168 3.89999V2.79999H168.9C169.3 2.79999 169.6 2.99999 169.6 3.39999C169.6 3.69999 169.3 3.99999 168.9 3.99999L168 3.89999Z" fill="#F5F5F5"/>
<path d="M168.7 0.900024C167 0.900024 165.6 2.30002 165.6 4.00002C165.6 5.70002 167 7.00002 168.7 7.00002C170.4 7.00002 171.8 5.60002 171.8 3.90002C171.8 2.20002 170.4 0.900024 168.7 0.900024ZM168.7 6.50002C167.3 6.50002 166.1 5.40002 166.1 3.90002C166.1 2.50002 167.2 1.30002 168.7 1.30002C170.1 1.30002 171.3 2.40002 171.3 3.90002C171.2 5.40002 170.1 6.50002 168.7 6.50002Z" fill="#F5F5F5"/>
</svg>
